<?xml version="1.0" encoding="UTF-8"?>
<!DOCTYPE svg PUBLIC "-//W3C//DTD SVG 1.1//EN" "http://www.w3.org/Graphics/SVG/1.1/DTD/svg11.dtd">
<!-- Creator: CorelDRAW 2021 (64-Bit) -->
<svg xmlns="http://www.w3.org/2000/svg" xml:space="preserve" width="157.298mm" height="124.416mm" version="1.1" style="shape-rendering:geometricPrecision; text-rendering:geometricPrecision; image-rendering:optimizeQuality; fill-rule:evenodd; clip-rule:evenodd"
viewBox="0 0 15715.57 12430.36"
 xmlns:xlink="http://www.w3.org/1999/xlink"
 xmlns:xodm="http://www.corel.com/coreldraw/odm/2003">
 <defs>
  <style type="text/css">
   <![CDATA[
    .fil1 {fill:#2B2A29}
    .fil0 {fill:#2B2A29;fill-rule:nonzero}
   ]]>
  </style>
 </defs>
 <g id="Layer_x0020_1">
  <metadata id="CorelCorpID_0Corel-Layer"/>
  <path class="fil0" d="M1250.98 11573.15c278.77,-115 470.42,-390.28 470.42,-703.89 0,-421.63 -344.98,-766.6 -766.61,-766.6l-954.78 0 0 2317.26 344.98 0 0 -787.52 522.69 0 574.97 787.52 425.12 0 -616.78 -846.76zm-906 -1125.52l609.81 0c233.47,0 421.64,188.16 421.64,421.63 0,229.98 -188.17,418.16 -421.64,418.16l-609.81 0 0 -839.79zm12070.67 -362.4c-644.65,0 -1170.83,526.17 -1170.83,1174.3 0,644.66 526.18,1170.83 1170.83,1170.83 648.14,0 1174.31,-526.17 1174.31,-1170.83 0,-648.13 -526.17,-1174.3 -1174.31,-1174.3zm0 2000.16c-452.99,0 -822.36,-372.85 -822.36,-825.85 0,-453 369.37,-825.84 822.36,-825.84 453,0 825.86,372.84 825.86,825.84 0,453 -372.86,825.85 -825.86,825.85zm-9129.67 -2000.16c-644.65,0 -1170.83,526.17 -1170.83,1174.3 0,644.66 526.18,1170.83 1170.83,1170.83 648.14,0 1174.31,-526.17 1174.31,-1170.83 0,-648.13 -526.17,-1174.3 -1174.31,-1174.3zm0 2000.16c-453,0 -822.36,-372.85 -822.36,-825.85 0,-453 369.36,-825.84 822.36,-825.84 453,0 825.86,372.84 825.86,825.84 0,453 -372.86,825.85 -825.86,825.85zm3275.54 -529.65l-94.09 146.35c-153.32,240.43 -411.18,379.82 -693.43,379.82 -453,0 -822.36,-372.84 -822.36,-825.85 0,-452.99 369.36,-822.35 822.36,-822.35 254.38,0 491.32,111.5 648.14,313.61l104.54 135.9 271.79 -216.04 -104.54 -139.38c-216.04,-289.22 -561.02,-442.54 -919.94,-442.54 -648.14,0 -1174.3,526.17 -1174.3,1170.82 0,648.14 526.16,1174.31 1174.3,1174.31 400.73,0 766.61,-202.11 986.14,-540.12l97.58 -149.83 -296.19 -184.67zm1616.85 -533.16l895.54 -906 -480.86 0 -1031.45 1045.39 0 -1045.39 -341.49 0 0 2303.33 341.49 0 0 -770.1 372.85 -376.33 791 1146.43 414.67 0 -961.75 -1397.33zm996.6 -912.96l0 344.98 777.07 0 0 1965.32 344.98 0 0 -1965.32 773.59 0 0 -344.98 -1895.63 0zm5773.99 -6.96l-954.78 0 0 344.98 954.78 0c233.47,0 421.64,188.16 421.64,421.63 0,229.98 -188.17,418.16 -421.64,418.16l-954.78 0 0 1132.49 344.98 0 0 -787.52 609.81 0c421.64,0 766.61,-341.5 766.61,-763.14 0,-421.63 -344.98,-766.6 -766.61,-766.6z"/>
  <g id="_2172667849184">
   <path class="fil1" d="M12530.96 11387.98c-63.53,0 -64.32,-47.46 -140.31,-45.52 -46.76,1.19 -92.48,31.04 -121.66,59.98 -13.13,13.03 -25.99,34.23 -34.69,55.52 -8.42,20.62 -15.62,47.41 -20.76,70.95 -4.55,20.78 -9.42,57.68 -15.6,74.76 -6.67,18.49 -29.03,42.45 -55.15,32.44 -10.11,-3.88 -19.94,-13.33 -24.73,-19.85l-8.75 -13.52c-14.53,-26.01 -23.32,-53.5 -31.96,-81.85 -10.68,-35.06 -19.46,-65.67 -40.35,-95.83 -4.18,-6.03 -16.77,-20.07 -21.9,-23.86l-27.04 -17.38c-9.22,-5.22 -22.26,-10.62 -32.88,-13.21 -26.77,-6.51 -53.81,-2.99 -79.78,4.97 -10.05,3.09 -21.26,8.37 -30.12,14.27 -16.13,10.72 -31.58,20.88 -43.48,35.67 -2.34,2.91 -2.46,3.97 -5.36,7.09 -4.93,5.34 -14.92,23.69 -19.94,27.01 1.45,-7 8.61,-18.3 12.46,-23.4l14.78 -19.9c7.34,-8.76 25.85,-27.73 35.89,-33.57 11.37,-6.61 33.94,-20.6 46.61,-23.14 32.15,-6.45 59.82,-10.86 91.49,1.21 10.32,3.94 22.14,8.9 32.18,15.31 0.26,0.17 0.59,0.4 0.86,0.56 25.61,15.38 28.94,20.39 47.48,43.85l9.77 15.54c1.12,2.01 1.87,3.76 3.26,6.16l10.82 23.81c3.6,8.33 7.01,17.34 10.11,26.09 0.08,0.24 47.7,164.83 77.57,108.24 12.41,-23.51 13.77,-141.61 70.79,-209.75 5.73,-6.84 10.83,-11.54 17.03,-17.62 16.73,-16.42 41.79,-32.6 64.06,-41.63 20.34,-8.25 31.15,-12.14 53.64,-15.73 42.12,-6.72 82.03,6.77 107.52,27.54 33.51,27.3 66.71,20.54 101.16,-4.87 20.64,-15.23 48.57,-34.05 76.21,-36.25 8.14,-0.65 17.43,-2.34 25.51,-1.25 27.84,3.79 55.62,13.21 80.16,24.38 9.88,4.5 15.09,6.46 24.46,11.86l63.75 40.38c10.16,8.21 11.18,6.31 27.46,21.32 9.7,8.93 20.92,17.08 30.19,26.61 5.91,6.06 11.23,12.56 17.1,17.79l13.42 14.45c0.29,0.27 1.19,0.98 1.47,1.25 14.41,13.35 53.65,71.58 57.78,87.13 -14.44,-24.19 -30.9,-47.04 -50.36,-66.99 -3.83,-3.92 -6.98,-9.09 -10.84,-12.78l-24.28 -22.93c-2.55,-2.79 -3.06,-2.54 -6.18,-4.83 -5.84,-4.29 -11.06,-10.46 -19.73,-16.52 -8.82,-6.16 -15.81,-13.85 -26.85,-20.25 -5.51,-3.19 -9.11,-5.91 -14.24,-9.41l-28.75 -18.22c-31.72,-18.44 -64.56,-33.09 -100.01,-43.35 -2.92,-0.85 -5.71,-1.57 -8.77,-2.37 -1.98,-0.52 -2.57,-0.71 -4.21,-1.16 -14.82,-4.08 -33.44,-5.68 -48.41,-1.82 -7.6,1.96 -26.87,10.37 -33.14,14.39 -10.6,6.78 -18.64,12.81 -27.84,19.35 -16.21,11.51 -45.85,28.89 -66.9,28.89zm-872.76 43.11c0,54.22 19.4,113.95 42.82,152.19 6.78,11.08 10.12,21.16 22.32,26.22 14.46,5.99 29.67,1.19 37.5,-6.9 6.66,-6.9 21.3,-48.76 29.87,-65.95 8.79,-17.62 25.18,-45.82 37.35,-59.9 4.57,-5.28 7.47,-8.28 12.09,-12.91 7.65,-7.66 -0.17,-1.88 12.03,-11.53 9.8,-7.75 3.9,-5.23 14.54,-10.62 6.71,-3.41 7.11,-5.8 15.36,-8.33 37.93,-11.64 53.52,-6.35 86.46,10.41l20.72 15.21 16.81 19.29c1.64,2.51 2.48,4.13 4.31,6.77 23.06,33.48 17.42,79.92 54.11,140.29 6.55,10.79 22.67,34.36 30.97,42.65 4.34,4.34 8.12,6.7 12.9,10.65 17.74,14.72 43.09,25.95 71.48,19.35 19.02,-4.43 33.33,-15.83 44.3,-29.35 32.18,-39.69 37.55,-80.04 37.59,-130.6 0.04,-37.05 19.66,-74.3 45.74,-98.51 2.21,-2.05 4.52,-3.69 6.9,-5.63l21.56 -14.51c35.69,-20.31 79.38,-23.93 117.9,-9.83 35.96,13.17 39.48,25.32 58.79,38.5 11.49,7.84 21.7,10.98 37.88,5.3 7.19,-2.54 16.86,-8.9 22.09,-13.98 19.42,-18.83 29.24,-39.36 57.05,-51.22 25.24,-10.76 55.4,-8.97 81.39,0.17l34.03 14.8c24.7,11.87 48.41,23.76 70.78,39.06 2.95,2.01 3.96,2.58 6.94,4.27l20.91 13.75c0.25,0.17 0.61,0.37 0.86,0.53 3.21,2.03 4.89,3.01 7.41,4.91 27.25,20.41 40.31,29.31 66.08,54.81 33.17,32.84 31.32,32.66 56.27,65.91 13.89,18.5 32.17,54.42 42.62,76.84 5.34,11.42 10.28,22.06 14.85,33.75 4.67,11.9 9.18,25.18 25.6,23.54 15.54,-1.56 17.06,-15.56 19.74,-29.16 7.26,-36.81 15.62,-89.98 17.89,-126.86 0.91,-14.73 3.02,-30.04 3.24,-45.86 0.11,-8.28 0.09,-14.81 0.82,-22.33 0.87,-8.83 -0.86,-14.77 -0.86,-22.11 0,-60.23 -2.94,-110.54 -40.08,-160.44 -2.03,-2.73 -2.27,-3.46 -4.79,-6.4 -19.03,-22.28 -25.68,-28.18 -47.96,-43.68 -19.65,-13.68 -39.5,-21.28 -63.66,-28.05 -30.74,-8.61 -246.58,-28.94 -289.91,-30.68 -12.78,-0.51 -30.25,-3.21 -43.05,-3.21l-62.49 -3.4c-32.54,-2.28 -115.2,-6.42 -148.62,-6.33l-249.98 1.07c-29.44,0 -58.61,3.41 -87.47,4.31 -51.31,1.62 -113.87,10.25 -165.29,15.45 -37.48,3.78 -119.78,15.21 -151.61,29.18 -29.13,12.78 -55.22,39.53 -68.59,67.63 -5.27,11.06 -8.07,20.2 -10.86,33.31 -6.99,32.92 -5.62,56.68 -5.62,88.21z"/>
   <path class="fil1" d="M11971.05 11119.16c5.13,-18.18 53.53,-68.24 70.29,-80.53 29.16,-21.38 57.65,-42.72 92.59,-54.55 14.36,-4.87 33.14,-11.13 49.75,-9.75 36.22,2.99 51.14,27.32 80.12,37.92 32.5,11.88 47.71,-21.9 86.57,-28.36 26.99,-4.5 59.55,4.97 82.29,19.2 2.78,1.74 5.27,4.01 7.96,5.85l17.63 12.9c27.81,24.98 39.31,62.98 48.18,98.93 2.19,8.85 3.69,15.47 5.15,24.25 1.28,7.78 3.13,18.05 3.78,25.04l27.21 1.13c13.92,-21.99 23.66,-57.1 33.72,-83.71 4.02,-10.65 8.74,-21.4 15.53,-30.36 2.5,-3.31 2.71,-4.64 5.53,-8.3 28.92,-37.63 82.05,-49.07 125.8,-29.3 12.81,5.78 24.68,15.27 33.77,24.58 4.88,4.99 9.69,9.83 13.46,15.74 3.95,6.17 7.57,11.1 10.39,18.33 -9.68,-14.54 -23.25,-31.22 -37.02,-40.35 -42.31,-28.04 -99.26,-26.18 -132.1,14.25 -21.77,26.81 -28.8,63.91 -40.08,96.02 -2.85,8.1 -7.54,16.04 -9.62,23.31 2.2,1.09 6.36,2.13 9.31,2.12 18.43,-0.67 24.44,6.65 29.73,-5.72 7.39,-17.29 9.5,-34.53 15.83,-52.25 6.94,-19.46 18.37,-33.62 34.98,-44.1 19.43,-12.28 38.79,-16.95 61.48,-7.38 9.16,3.88 17.04,10.03 24.03,16.32l8.84 10.6c3.12,4 5.59,6.76 8.5,10.88 10.87,15.41 19.33,33.47 27.3,51.83 4.94,11.38 6.16,19.44 14.57,25.79 26.91,20.31 48.58,-34.57 54.36,-54.7 14.5,-50.41 21.05,-129.47 -17.19,-169.97 -19.83,-20.99 -40.81,-26.77 -76.31,-32.01 -31.01,-4.58 -63.34,-9.82 -95.78,-12.64 -28.59,-2.49 -73.28,-7.48 -101.44,-7.44 -13.63,0.02 -32.05,-1 -44.15,-1.98 -14.64,-1.18 -31.36,0.95 -45.91,-0.51 -17.34,-1.75 -90.13,-1.16 -115.96,1.15 -6.93,0.62 -15.57,0.15 -23.17,0.19 -13.82,0.08 -30.2,2.22 -44.4,2.22 -36.29,-0.1 -263.87,16.89 -295.67,28.76 -10.09,3.77 -16.97,6.07 -26.08,11.57 -9.26,5.59 -14.86,9.1 -21.96,15.48 -4.25,3.83 -6.68,5.32 -10.19,9.32 -8.55,9.76 -16.18,21.62 -22.24,31.93 -26.16,44.5 -15.56,129.94 -10.32,184.93l69.7 -7.5c2.84,-4.82 5.96,-8.54 9.59,-14.06 1.54,-2.35 2.88,-4.2 4.56,-6.54 17.11,-23.95 37.96,-44.29 61.8,-61.71l26.54 -19.42c29.8,-20.06 77.37,-48.19 112.9,-48.19 50.11,0 53.17,49.82 86.1,49.82 19.77,0 30.93,-22.01 53.4,-29.83 23.54,-8.2 41.74,-10.09 65.94,-1.77 36.61,12.59 66.17,46.62 66.17,91.5l1.4 29.7 38.58 1.34c-4.76,-32.58 -11.46,-62.96 -22.45,-91.05 -14.48,-36.98 -53.04,-68.41 -92.98,-74.95 -17.88,-2.94 -33.19,-2.04 -48.2,5.14 -13.88,6.62 -19.14,14.6 -35.44,20.15 -53.71,18.27 -78.22,-42.78 -122.01,-40.04 -38.34,2.41 -103.34,35.46 -134.67,61.06 -11.65,9.51 -34.03,28.76 -43.99,39.44l-25.98 30.32z"/>
   <path class="fil1" d="M12282.37 10700.09c-47.47,0.03 -175.49,7.11 -210.18,22.29 -61.29,26.81 -36.96,142.8 -11.8,164.05 5.09,4.31 14.09,4.09 19.12,0.15 4.84,-3.79 6.38,-10.86 8.99,-17.41 4.56,-11.45 11.48,-25.68 18.11,-34.62 14.29,-19.27 37.68,-39.81 67.91,-20.64 6.92,4.39 7.79,6.76 12.98,12.06 9.59,9.82 12.59,23.76 15.91,36.82 1.7,6.67 4.76,13.08 6.6,19.79 7.7,-2.02 16.93,-1.87 24.5,-2.09 -2.14,-9.03 -6.2,-16.37 -8.96,-25.83 -1.38,-4.72 -2.49,-8.84 -3.72,-12.99 -8.95,-30.16 -24.56,-55.9 -57.38,-61.77 -10.4,-1.86 -23.94,-0.3 -32.24,2.45 -24.98,8.26 -28.61,20.64 -39.37,28.68 3.22,-1.9 4.86,-6.5 7.23,-9.41 2.67,-3.26 6.51,-6.65 9.71,-9.78 13.34,-13.03 35.33,-20.18 54.91,-18.45 43.29,3.84 59.52,44.35 70.91,79.54 3.61,11.16 8.74,19.24 10.66,26.87l20.85 -1.79c1.53,-4.7 4.28,-30.95 14.8,-61.21 1.95,-5.61 3.67,-7.5 6.08,-12.06 3.07,-5.76 3.15,-7.71 6.7,-12.56 5.66,-7.7 13.95,-12.3 20.69,-18.27 19.45,-17.21 61.23,-26.19 85.96,-9.1 23.13,15.98 28.49,15.25 51.97,-0.22 16.46,-10.83 36.14,-18.91 56.58,-12.32 9.57,3.09 20.49,5.92 28.47,10.27l46.02 30.4c10.02,8.27 33.77,29.74 37.19,39.96 -6.08,-2.64 -3.41,-3.63 -8.42,-8.99l-19.33 -16.74c-3.43,-2.89 -6.47,-5.68 -9.75,-8.32l-21.82 -14.21c-23.02,-12.05 -52.72,-31.22 -80.49,-23.29 -18.81,5.38 -27.25,21.08 -46.5,25.44 -27.69,6.27 -30.25,-10.5 -52.64,-16.83 -25.69,-7.27 -56.94,4.83 -72.66,24.78 -1.75,2.21 -0.98,1.17 -2.67,3.01 -5.93,6.45 -9.87,14.4 -13.87,23.35l-2.1 5.11c-3.78,10.43 -13.61,43.4 -10.52,50.91 5.21,1.44 16.83,0.76 24.64,-0.6 1.66,-21.68 0.93,-43.33 16.04,-58.77 17.36,-17.74 44.32,-31.12 73.23,-18.39l8.35 4.52c4.14,1.97 4.56,1.82 7.79,4.29l9.83 8.27c2.86,1.97 1.79,1.76 4.84,2.55 5.67,1.47 10.14,0.2 13.65,-2.13 0.26,-0.18 0.56,-0.44 0.81,-0.62l5.19 -4.26c9.48,-8.77 14.64,-16.43 27.18,-22.76 18.69,-9.42 49.32,2.86 67.13,14.07 4.76,2.99 1.86,2.32 7.25,5.17 14.69,7.75 30.25,16.19 41.54,28.24 9.44,10.08 19.88,18.15 28.82,29.17 16.4,20.2 4.93,13.73 62.7,19.79 3.49,-33.78 8,-78.49 -3.38,-109.71 -4.01,-11 -10.31,-19.46 -17.18,-28.52 -5.35,-7.05 -17.39,-15.76 -25.7,-20.26 -30.66,-16.62 -96,-15.94 -132.6,-20.04 -45.24,-5.08 -132.03,-8.06 -179.69,-8.06 -13.23,0 -27.3,1.06 -38.88,1.06z"/>
   <path class="fil1" d="M12309.4 10662.13c5.75,-12.82 21.25,0.18 7.68,7.5 -4.68,-1.26 -6.41,-3.25 -7.68,-7.5zm24.64 -49.03c15,-9.91 28.93,16.34 12.41,23.97 -13.82,6.37 -29.96,-12.36 -12.41,-23.97zm-25.29 73.66l95.83 1.36c1.28,-1.59 0.3,-0.21 1.74,-2.54 23.72,-38.22 -2.97,-87.35 -47.54,-88.24 -23.53,-0.47 -42.59,12.89 -51.54,28.13 -9.56,16.29 -12.07,46.89 1.51,61.28z"/>
   <path class="fil1" d="M12370.35 10586.23c33.98,1.52 77.52,-32.02 85.28,-59.26 -15.58,-10.01 -46.92,5.23 -55.49,13.65 -14.62,14.35 -20.91,22.86 -29.79,45.61z"/>
   <path class="fil1" d="M12238.03 10450.58c6.34,3.79 58.32,-3.32 87.53,42.93 17.15,27.15 28.84,63.26 29.35,101.23l7.69 0.11c-1.69,-52.39 -20.22,-115.79 -66.49,-138.57 -14.48,-7.12 -38.39,-14.32 -57.94,-11.19l-0.15 5.5z"/>
  </g>
  <path class="fil1" d="M3493.26 11591.28c16.07,-0.91 14.54,7.34 23.9,23.72l53.51 92.36c12.19,21.05 22.12,38.38 34.35,60.36 5.38,9.66 11.34,19.45 17.34,30.14l13.13 23.34c6.08,7.66 0.8,2.66 8.1,7.78 6.03,-13.54 52.01,-80.84 60.69,-89.72l107.69 -6.7 -144.25 -253.96c-15.76,2.11 -32.74,15.2 -46.57,22.99 -17.04,9.6 -30.64,17.9 -46.5,26.46 -16.39,8.82 -27.63,15.91 -46.38,26.6 -7.13,4.07 -17.94,8.51 -23.67,12.98 -18.35,14.32 -1.89,5.15 -11.36,23.67 -18.55,-4.69 4.68,-8.43 -44.06,0.89l-153.44 32.67c-0.53,0.8 -0.83,1.31 -1.02,2.68l-3.49 7.78c-0.03,0.04 3.89,6.39 -10.2,7.57 -16.42,1.39 -1.47,1.54 -11.49,-5.43 -10.73,-7.44 10.71,1.29 -12.21,-7.02l-173.12 -47.57 -9.26 14.85c-0.35,0.49 -1.05,1.51 -1.67,2.17 -48.22,-12.21 -10.22,-4.3 -32.77,-26.01l-118.33 -71.63c-35.61,-21.72 -24.82,-16.69 -51.42,-22.87 -15.11,-3.49 -7.72,-23.78 -7.89,-25.35 -0.74,-7.17 -115.39,-139.25 -120.56,-143.64 -14.77,-12.49 0.87,1.05 -11.3,-4.85 -6.99,-3.39 1.11,2.88 -5.33,-3.67 -1.41,-1.42 -3.57,-5.76 -5.45,-8.31 4.53,-18.07 3.91,-2.04 10.04,-19.4 -9.88,-7.4 -32.71,-41.01 -42.81,-54.77 -9.07,-12.34 -64.35,-92.66 -75.85,-98.65 -15.34,-7.98 -1.7,8.1 -15.75,-10.27 -7.8,-10.2 -27.86,-56.21 -32.36,-68.12l35.26 87.55c-11.12,4.62 -201.95,135.95 -221.14,155.81 12.31,15.22 69.35,37.57 87.19,50.51 19.43,14.08 17.02,91.5 32.25,109.79 14.49,-7.33 39.09,-26.76 53.75,-37.25 20.04,-14.35 32.08,-23.42 55,-39.62l109.35 -76.08 6.31 12.8c0.32,0.73 0.85,2.09 1.11,2.69 0.26,0.6 0.76,1.78 1.1,2.69 -7.31,14.62 -125.6,111.38 -153.26,135.24 -12.9,11.12 -47.04,36.93 -51.89,47.93 143.93,64.77 80.63,20.44 128.31,148.25 13.68,-5.91 193.4,-162.95 204.87,-173.21 6.83,4.75 4.42,3.23 10.77,9.38 6.18,5.99 4.4,2.58 9.23,10.48l-68.84 116.82c-15.61,26.54 -62.45,97.15 -68.8,117.22 25.54,16.15 93.97,-0.94 112.44,22.58 15.9,20.21 37.85,67.78 55.34,81.51 12.28,-16.16 23.37,-38.05 34.04,-55.49 12.91,-21.11 23.03,-39.13 35.26,-59.17l69.2 -116.8 35.66 9.02 -71.58 253.97c29.2,-1.5 96.82,-24.57 116.83,-8.54 15.75,12.62 50.86,50.87 72.34,64l74.57 -264.24 26.33 -6.47 61.68 266.09c13.2,-6.79 30.4,-21.14 41.57,-29.8 74.24,-57.58 22.37,-31.17 152.05,-9.31 -8.71,-54.18 -32.6,-150.18 -46.59,-208.92 -5.05,-21.2 -17.82,-53.51 -10,-70.48zm334.32 -301.93c18.3,21.67 10.65,9.24 58.19,33.65 21.97,11.27 45.81,23.29 66.86,35.16l135.37 70.46 4.77 -94.1c1.45,-17.88 0.9,-15.53 11.93,-24.02 19.57,-15.09 65.66,-44.23 76.47,-57.61 -9.54,-13.73 -211.21,-109.97 -243.03,-130.45l22 -48.03c-14.59,-5.19 -9.59,6.27 -21.44,29.77l-9.9 11.58c-9.45,6.79 -2.76,-9.12 -19.91,24.49l-81.3 149.1zm-228.89 -320.12c21.61,5.09 -0.21,-23.27 41.41,44.96 13.41,21.98 23.92,38.45 37.92,60.67 11.89,18.9 64.95,110.03 77.26,118.17 71.03,-79.31 18.11,-83.38 109.15,-93.15 20.84,-2.24 40.52,-5.8 62.18,-6.53 -6.25,-20.96 -57.96,-96.44 -71.52,-119.09 -17.04,-28.45 -65.28,-99.68 -70.77,-119.79 9.19,-5.51 15.78,-12.93 21.67,-21.7 -12.84,6.73 -11.78,10.66 -25.35,16.06 -23.34,9.28 -138.87,77.03 -164.47,93.7 -25.78,16.77 3.8,17.3 -17.49,26.71zm81.48 487.89l155.13 153.37c8.35,7.98 49.63,47.1 54.92,49.91 10.15,-16.4 27.31,-90.15 37.01,-100.8 14.4,-15.83 82.08,-24.98 100.97,-40.49l-207.27 -200.99c-12.04,2.58 -10.07,4.05 -19.25,13.81l-87.1 88.21c-10.24,11.63 -26.95,26.66 -34.4,36.98zm-301.72 -412.31c24.91,-1.14 18.97,-14.7 36.42,45.37 10.31,35.54 58.18,190.09 66.89,204.45 16.87,-6.93 64.18,-57.2 70.9,-62.11 17.13,-12.57 90.1,5.52 116.22,9.13 -2.21,-26.59 -63.15,-198.54 -75.86,-246.24 -7.69,-28.9 -1.24,-29.47 -36.6,-18.14 -24.77,7.93 -147.3,39.67 -159.34,52.89l-4.71 6.08c-4.57,4.42 -8.97,5.44 -13.93,8.56zm-217.75 0.5c19.18,12.1 13.46,10.32 14.25,54.39l3.76 217.37c26.92,-5.34 85,-44.15 98.64,-44.17 11.31,-0.03 78.58,35.28 99.6,42.04l-5.11 -278.9c-15.99,-3.98 -133.67,-2.02 -162.7,-0.64 -63.27,3.02 -17.24,6.5 -48.44,9.9 -0.75,-0.51 -2.1,-1.9 -2.44,-1.21 -2.14,4.3 -2.91,-13.23 -45.3,-24.2 -19.42,-5.03 -38.15,-11.01 -56.85,-16.02 -10.58,-2.83 -89.84,-27.99 -98,-25.43 -8.45,2.66 -4.47,5.51 -12.46,8.67 -32.58,-14.68 12.54,-9.32 -36.32,-37.24 -16.7,-9.53 -33.03,-19.83 -50.28,-30.01l-75.24 -44.87c-34.18,-20.78 -17.17,-15.75 -58.53,48.1l-110.37 182.4c28.86,7.97 98.71,3.46 114.08,21.28l56.2 79.31c20.28,-18.99 128.5,-207.83 142.23,-222.19 33.71,7.14 20,22.2 11.22,54.18 -6.95,25.25 -13.07,47.46 -19.62,71.47 -12.83,47.01 -28.79,94.12 -38.91,139.56 31.23,1.4 93.83,-23.7 115.83,-10.23 10.42,6.36 58.42,54.14 73.72,61.54 7.49,-10.13 34.26,-114.94 37.49,-126.39 12.03,-42.56 22.87,-86.75 36.72,-127.8l16.83 -0.94z"/>
  <g id="_2172667852544">
   <path class="fil1" d="M8456.53 8042.3c34.95,-117.72 419.41,-751.18 529.56,-943.21 72.45,-126.32 158.95,-136.52 283.68,-210.15 398.76,-235.38 757.31,-589.18 998.66,-967.01 262.8,-411.4 449.6,-890.08 483.41,-1478.04 28.31,-492.43 -85.31,-260.47 217.78,-771.4 125.41,-211.41 229.72,-420.73 364.91,-621.2 93.07,92.44 186.46,713.72 197.6,825.13 89.3,892.81 -129.63,1790.08 -592.16,2490 -280.04,423.75 -602.98,766.14 -1016.17,1055.08 -331.61,231.88 -961.71,566.8 -1467.28,620.8zm-4378.8 -5004.97l542.67 933.24c67.23,115.37 33.24,282.38 44.43,448.35 39,578.6 175.9,1019.34 474.04,1491.44 244.35,386.91 592.33,724.92 994.26,971.03 358.03,219.24 188.66,47.93 468.22,518.12 85.6,143.97 312.04,498.6 358.17,642.63 -492.43,-47.97 -1145.74,-393.64 -1467.65,-620.11 -1117.68,-786.32 -1754.8,-2124.22 -1608.31,-3536.65 20.32,-195.92 109.06,-721.17 194.18,-848.05zm-103.09 -975.93l2176.31 -0.84 938.3 1629.21c6.15,66.96 -155.42,553.62 -179.04,678.06 161.25,-33.52 358.81,-128.12 515.43,-133.81l1375 2405.06c-28.25,111.95 -150.94,283.58 -210.18,390.25l-186.62 324.94c-26.68,38.15 -20.27,26.93 -40.14,44.9l-1314.6 -2256.57 -352.28 93.92c58.78,182.76 1450.86,2473.75 1448.96,2549.92 -40.84,107.66 -147.49,269.83 -208.12,372.04 -37.1,62.51 -67.68,117.62 -104.06,183.05 -19.12,34.38 -29.8,52.72 -52,90.5l-73.53 99.71c-70.79,-65.84 -426.45,-715.52 -477.33,-801.67 -446.49,-756.15 -1042.77,-1771.45 -1446.66,-2507.22 -13.43,-24.47 -17.93,-34.42 -27.63,-52.19l-87.71 -156.23c-25.17,-48.54 -43.87,-66.87 -64.19,-103.09 -29.2,-52.02 -20.12,-52.07 -46.4,-94.13 -18.54,-29.68 -42.99,-61.89 -64.72,-99.35l-1518.78 -2656.46zm2622.17 -1.23l4844.14 0.26c-46.81,116.89 -374.29,691.64 -434.24,759.38l-1786.19 2.82c42.14,112.01 159.27,290.45 221.84,401.86 98.08,174.64 625,1079.87 657.59,1181.36l-445.65 756.31 -980.29 -1742.48c-98.24,-187.35 -254.4,-412 -326.35,-596.01l-1316.82 -1.2 -434.04 -762.3zm-1695.89 -392.89c57.83,-109.8 167.07,-176.14 257.99,-261.42l279.58 -231.66c1376.31,-989.43 3188.49,-987.49 4550.76,8.82 143.24,104.77 465.22,374.49 527.07,484.1 -272.25,5.15 -548.08,1.27 -820.87,1.27 -564.89,0 -287.48,28.94 -663.48,-144.65 -400.73,-185.02 -826.66,-304.69 -1323.91,-304.51 -935.91,0.33 -1496.86,421.5 -1599.28,443.64l-1207.86 4.42zm-1615.45 -32.51c44.79,124.05 209.8,381.33 287.13,513.03 216.13,368.1 255.61,339.76 184.92,540.95 -485,1380.51 -346.98,2652.74 373.86,3819.45 648.98,1050.4 1641.92,1660.08 2863.25,1908.18 220.73,44.84 218.97,15.21 282.62,130.23l430.81 733.96c66.38,-74.68 164.81,-270.71 221.96,-369.59 318.1,-550.43 155.9,-429.48 629.96,-520.1 1910.77,-365.24 3379.23,-2123.31 3384.56,-4128.46 3.11,-1163.62 -416.03,-1588.44 -283.16,-1803.81l316.73 -545.49c54.58,-93.28 115.35,-182.99 152.35,-277.37 -206.92,-24.59 -534.6,-5.6 -754.96,-5.57 -270.36,0.04 -276.24,56.28 -521.29,-226.49 -740.41,-854.43 -1904.21,-1403.08 -3146.16,-1403.67 -1232.81,-0.59 -2160.56,460.86 -2970.56,1210.58l-366.09 391.2c-76.34,64.64 -822.64,7.62 -1085.95,32.98z"/>
   <path class="fil1" d="M6138.12 4268.07c162.78,-608.92 212.01,-339.21 -223.94,-1100.65 -65.54,-114.49 -144.53,-233.12 -189.38,-344.18l-431.71 -0.51 410.05 720.53c54.92,90.56 355.61,640.18 422.04,712.68 2.81,3.06 8.56,8.15 12.94,12.13z"/>
  </g>
 </g>
</svg>
